<?xml version="1.0" encoding="UTF-8" standalone="no"?>
<!DOCTYPE svg PUBLIC "-//W3C//DTD SVG 1.1//EN" "http://www.w3.org/Graphics/SVG/1.1/DTD/svg11.dtd">
<!-- Created with Vectornator (http://vectornator.io/) -->
<svg height="100%" stroke-miterlimit="10" style="fill-rule:nonzero;clip-rule:evenodd;stroke-linecap:round;stroke-linejoin:round;" version="1.1" viewBox="0 0 876 880" width="100%" xml:space="preserve" xmlns="http://www.w3.org/2000/svg" xmlns:vectornator="http://vectornator.io" xmlns:xlink="http://www.w3.org/1999/xlink">
<defs>
<linearGradient gradientTransform="matrix(21.7349 0 0 21.7349 3.30149 5.30149)" gradientUnits="userSpaceOnUse" id="LinearGradient" x1="27.1691" x2="12.8306" y1="38.6766" y2="1.3234">
<stop offset="0" stop-color="#22c9fd"/>
<stop offset="0.1149" stop-color="#4996fe"/>
<stop offset="0.2217" stop-color="#6b6bff"/>
<stop offset="0.4182" stop-color="#9b5de0"/>
<stop offset="0.6248" stop-color="#c950c3"/>
<stop offset="0.7291" stop-color="#da4bb8"/>
<stop offset="0.7465" stop-color="#de4dae"/>
<stop offset="0.8241" stop-color="#ec5485"/>
<stop offset="0.8949" stop-color="#f65968"/>
<stop offset="0.9559" stop-color="#fd5c56"/>
<stop offset="1" stop-color="#ff5d50"/>
</linearGradient>
<linearGradient gradientTransform="matrix(20.9846 0 0 20.9846 18.3071 22.1748)" gradientUnits="userSpaceOnUse" id="LinearGradient_2" x1="20" x2="20" y1="38.2358" y2="1.5861">
<stop offset="0" stop-color="#dde2e7"/>
<stop offset="0.1685" stop-color="#e5e8ec"/>
<stop offset="0.6503" stop-color="#f7f7f9"/>
<stop offset="1" stop-color="#fdfcfd"/>
</linearGradient>
<linearGradient gradientTransform="matrix(20.9846 0 0 20.9846 7.15369 10.3814)" gradientUnits="userSpaceOnUse" id="LinearGradient_3" x1="20" x2="20" y1="38.2358" y2="1.5861">
<stop offset="0" stop-color="#dde2e7"/>
<stop offset="0.1685" stop-color="#e5e8ec"/>
<stop offset="0.6503" stop-color="#f7f7f9"/>
<stop offset="1" stop-color="#fdfcfd"/>
</linearGradient>
<linearGradient gradientTransform="matrix(1.04128 -0.0170672 -0.0170672 1.05094 15.4104 1.65797)" gradientUnits="userSpaceOnUse" id="LinearGradient_4" x1="308.483" x2="162.161" y1="408.362" y2="600.003">
<stop offset="0" stop-color="#22c9fd"/>
<stop offset="0.0493" stop-color="#2abefd"/>
<stop offset="0.3892" stop-color="#6b6bff"/>
<stop offset="0.5271" stop-color="#756af3"/>
<stop offset="0.5591" stop-color="#8d68d6"/>
<stop offset="0.6057" stop-color="#ac65b2"/>
<stop offset="0.6305" stop-color="#b864a4"/>
<stop offset="0.7326" stop-color="#d56182"/>
<stop offset="0.8377" stop-color="#ec5f67"/>
<stop offset="0.9304" stop-color="#fa5d56"/>
<stop offset="1" stop-color="#ff5d50"/>
</linearGradient>
</defs>
<g id="Слой-1" vectornator:layerName="Слой 1">
<path d="M3.30149 440C3.30149 199.923 197.923 5.30149 438 5.30149C678.077 5.30149 872.699 199.923 872.699 440C872.699 680.077 678.077 874.699 438 874.699C197.923 874.699 3.30149 680.077 3.30149 440Z" fill="url(#LinearGradient)" fill-rule="nonzero" opacity="1" stroke="none" vectornator:layerName="circle"/>
<path d="M53.4564 440C53.4564 227.622 225.622 55.4564 438 55.4564C650.378 55.4564 822.544 227.622 822.544 440C822.544 652.378 650.378 824.544 438 824.544C225.622 824.544 53.4564 652.378 53.4564 440Z" fill="url(#LinearGradient_2)" fill-rule="nonzero" opacity="1" stroke="none" vectornator:layerName="circle"/>
<path d="M426.847 43.6631C214.482 43.6631 42.303 215.821 42.303 428.207C42.303 640.592 214.461 812.75 426.847 812.75C639.232 812.75 811.39 640.592 811.39 428.207C811.39 215.821 639.232 43.6631 426.847 43.6631ZM600.264 604.562C572.249 638.725 524.782 633.52 510.365 630.394C487.786 625.525 472.971 611.424 465.836 588.613C461.198 573.693 463.801 546.266 478.679 531.682C521.068 492.462 587.274 514.244 587.274 478.906C587.274 469.001 587.568 366.428 587.526 303.705C587.526 288.386 585.91 280.286 570.759 283.266C503.462 296.486 435.765 310.567 368.488 323.892C354.743 326.62 350.84 331.048 350.84 345.024C350.84 428.773 350.84 508.452 350.882 592.202C350.882 605.485 350.316 625.735 344.524 637.885C332.206 663.675 317.957 677.441 289.859 682.855C272.442 686.213 261.488 688.122 243.986 683.926C201.283 673.706 193.98 638.872 199.709 607.416C199.961 606.219 204.22 597.951 204.787 596.86C216.119 577.743 223.778 573.441 261.509 560.368C293.888 549.12 319.741 559.004 319.741 529.5C319.741 529.5 319.657 236.575 319.741 235.022C319.405 216.975 325.113 206.231 342.32 202.643C368.782 197.124 596.025 152.594 596.025 152.594C610.043 150.265 618.08 160.086 618.31 174.418L617.849 546.392C617.828 567.44 619.234 581.479 600.264 604.562Z" fill="url(#LinearGradient_3)" fill-rule="nonzero" opacity="0" stroke="none" vectornator:layerName="path"/>
<g opacity="1">
<path d="M99.8264 561.753C95.6786 567.419 95.812 573.551 101.794 576.645C101.794 576.645 200.773 624.156 212.397 629.558C219.948 633.065 225.287 630.504 230.492 623.357C230.983 622.774 317.506 508.308 317.506 508.308C326.224 496.781 333.6 506.664 348.619 512.881C374.144 523.46 382.126 514.173 385.845 512.14C397.311 501.492 404.838 485.791 391.73 469.601C386.361 462.962 381.654 460.588 374.09 456.916C361.878 451.006 352.43 452.314 340.157 458.872C334.379 461.964 328.182 469.714 324.257 474.904C299.526 507.636 275.982 538.766 251.235 571.486C247.106 576.946 244.331 577.567 238.326 574.701C208.973 560.684 179.246 546.849 149.932 532.798C143.329 529.635 145.112 526.008 149.639 520.024C168.149 495.5 198.576 455.516 201.503 451.646C211.945 437.84 230.513 465.261 258.11 462.045C268.039 460.597 277.119 450.633 279.783 443.471C283.828 432.521 282.4 422.78 275.311 414.429C270.79 409.09 254.41 393.504 233.727 398.843C219.75 402.449 216.125 408.33 209.899 416.561C209.899 416.561 99.8264 561.753 99.8264 561.753Z" fill="url(#LinearGradient_4)" fill-rule="evenodd" opacity="1" stroke="none" vectornator:layerName="path"/>
<path d="M511.813 116.342C507.114 116.342 502.75 117.349 498.722 118.692C507.282 124.398 511.981 131.95 514.33 140.51C514.499 141.684 514.834 142.524 515.002 143.698C515.17 144.705 515.337 145.712 515.337 146.719C516.009 161.488 511.477 163.334 508.289 172.061C503.422 183.306 504.764 195.39 510.638 205.124C511.142 206.298 511.813 207.641 512.652 208.816C506.275 166.355 541.687 159.978 548.232 146.719C548.735 135.139 539.169 127.419 531.617 122.049C524.4 117.685 517.855 116.342 511.813 116.342ZM565.182 125.909C564.511 129.769 565.014 128.762 564.847 130.776C564.679 132.118 564.679 133.797 564.512 135.139C564.176 136.482 563.84 137.824 563.337 139.167C563.001 140.51 562.498 141.852 561.994 143.195C561.323 144.538 560.819 145.712 560.148 147.055C559.645 147.727 559.309 148.398 558.805 149.069C558.47 149.572 558.134 150.076 557.799 150.579C556.959 151.754 556.12 152.929 555.281 153.936C554.274 154.943 553.435 156.118 552.26 156.957L552.26 157.125C551.253 157.964 550.246 158.971 549.071 159.81C545.547 162.495 541.519 164.509 537.827 167.027C536.652 167.866 535.477 168.537 534.47 169.544C533.296 170.383 532.289 171.222 531.282 172.229C530.107 173.236 529.268 174.243 528.261 175.418C527.422 176.425 526.415 177.6 525.743 178.775C524.904 179.95 524.065 181.124 523.394 182.299C522.722 183.642 522.219 184.817 521.548 186.159C521.044 187.502 520.541 188.677 520.205 190.019C519.701 191.53 519.366 192.872 519.03 194.215C518.862 194.887 518.862 195.725 518.695 196.397C518.526 197.068 518.526 197.739 518.359 198.411C518.359 199.753 518.191 201.264 518.191 202.606C518.191 203.613 518.191 204.62 518.359 205.627C518.359 206.97 518.527 208.313 518.863 209.823C519.031 211.166 519.366 212.508 519.702 213.851C520.206 215.193 520.541 216.536 521.045 217.879C521.38 218.718 521.884 219.557 522.219 220.228L483.619 205.292C477.074 203.445 470.696 201.767 464.151 200.257C460.626 199.418 457.102 198.578 453.578 197.739C443.508 195.725 433.27 194.215 423.033 193.208C422.698 193.208 422.529 193.04 422.194 193.04C412.124 192.033 402.222 191.53 392.153 191.53C384.768 191.53 377.384 191.865 370.167 192.369C359.929 193.04 349.692 194.383 339.454 196.061C336.937 196.396 334.42 196.9 331.902 197.404C326.699 198.41 321.665 199.585 316.798 200.76C314.28 201.432 311.763 202.103 309.245 202.774C306.728 203.781 304.378 204.956 302.029 205.963C300.183 206.802 298.336 207.641 296.49 208.48C296.155 208.648 295.819 208.648 295.651 208.816C293.973 209.655 292.462 210.326 290.952 211.165C290.449 211.333 290.113 211.501 289.777 211.669C287.931 212.508 286.085 213.515 284.575 214.354C283.4 214.857 282.225 215.529 281.218 216.032C280.714 216.368 280.043 216.704 279.707 216.871C278.197 217.71 276.687 218.55 275.344 219.389C273.833 220.228 272.491 221.067 271.316 221.906C270.141 222.745 268.966 223.417 267.959 224.256C267.791 224.424 267.624 224.424 267.456 224.591C266.449 225.263 265.274 226.102 264.267 226.941C264.267 226.941 264.099 227.109 263.932 227.276C263.093 227.948 262.254 228.619 261.414 229.29C261.079 229.458 260.743 229.794 260.407 229.962C259.568 230.633 258.729 231.472 257.89 232.143C257.722 232.479 257.387 232.647 257.219 232.815C256.212 233.822 255.205 234.661 254.198 235.668C254.029 235.668 254.029 235.836 253.862 236.003C252.855 236.843 251.848 237.85 250.841 238.857C250.673 239.025 250.673 239.192 250.506 239.192C249.667 240.031 248.828 240.87 247.988 241.877C247.653 242.213 247.149 242.549 246.814 242.884C245.975 243.891 244.968 244.898 243.961 245.905C243.792 246.24 243.457 246.409 243.289 246.744C241.946 248.087 240.772 249.43 239.429 250.772C239.261 250.94 239.094 251.108 238.925 251.276C236.24 254.129 233.387 256.982 230.366 259.499C227.345 262.184 224.157 264.702 220.968 266.884C217.611 269.233 214.423 271.247 210.898 273.261C207.542 275.107 204.017 276.786 200.325 278.296C196.801 279.806 193.108 281.149 189.416 282.324C182.367 283.834 175.151 286.687 168.941 287.191C167.598 287.191 166.088 287.526 164.745 287.694C163.235 288.03 161.892 288.366 160.55 288.701C159.207 289.205 157.864 289.708 156.522 290.212C155.179 290.715 153.837 291.387 152.494 292.058C151.319 292.897 149.976 293.568 148.802 294.407C147.627 295.247 146.452 296.254 145.445 297.261C144.27 298.1 143.095 299.275 142.089 300.281C141.082 301.456 140.075 302.463 139.235 303.638C138.396 304.981 137.389 306.155 136.718 307.498C135.879 308.673 135.04 310.016 134.368 311.358C133.697 312.869 133.026 314.211 132.522 315.722C132.019 317.064 131.515 318.575 131.012 320.085C130.676 321.428 130.34 322.77 130.173 324.113C130.173 324.281 130.005 324.448 130.005 324.617C129.669 326.127 129.669 328.141 129.501 329.148C129.333 330.323 129.166 331.33 129.166 332.505C129.166 333.176 129.166 334.015 129.334 334.686C129.502 335.861 129.669 336.868 130.005 337.875C130.341 338.882 130.677 339.889 131.18 340.896L131.18 341.064C131.684 342.071 132.355 343.078 133.026 344.085C133.698 345.092 134.369 346.099 135.208 347.106C136.047 347.945 137.054 348.952 138.061 349.791C139.068 350.798 140.075 351.637 141.25 352.476C145.278 356.001 146.285 357.176 151.487 359.861C152.327 360.364 153.166 360.7 154.173 361.203C154.341 361.203 154.508 361.371 154.676 361.371C154.676 361.707 154.676 361.875 154.844 362.211C155.012 363.553 155.348 364.896 155.683 366.239C156.019 367.749 156.523 369.092 157.026 370.266C157.53 371.273 157.865 372.28 158.369 373.287C158.537 373.623 158.704 373.959 158.872 374.127C159.544 375.469 160.215 376.644 160.886 377.819C161.725 378.994 162.564 380.168 163.404 381.343C164.243 382.35 165.25 383.525 166.257 384.532C167.264 385.539 168.271 386.378 169.445 387.385C169.445 387.385 169.614 387.553 169.781 387.553C170.788 388.392 171.795 389.232 172.802 389.903C173.976 390.742 175.151 391.413 176.494 392.085C177.669 392.756 179.011 393.427 180.354 393.931C181.361 394.434 182.536 394.77 183.711 395.105C183.879 395.274 184.046 395.274 184.382 395.441C185.054 395.609 185.893 395.776 186.564 395.944C186.06 405.007 185.892 413.566 187.235 416.587C188.746 419.944 196.13 409.706 203.515 397.958C202.508 409.539 201.836 423.133 203.515 427.16C205.361 431.356 215.431 418.266 224.158 403.832C343.148 376.309 451.733 458.544 463.145 574.681C460.963 556.556 438.642 546.486 428.405 549.004C423.37 561.423 414.811 577.367 401.049 587.269C402.224 576.192 401.72 564.78 399.371 553.703C395.678 569.143 388.462 583.576 378.56 595.996C362.616 597.17 346.672 589.45 338.281 577.87C337.609 577.367 337.442 576.36 336.938 575.688C336.435 574.514 335.931 573.339 335.596 572.164C335.092 570.989 334.756 569.814 334.589 568.64C334.421 567.465 334.421 566.29 334.421 564.947C334.421 564.108 334.421 563.269 334.421 562.43C334.589 561.255 334.924 560.08 335.26 558.906C335.595 557.731 335.931 556.556 336.434 555.381C337.106 554.206 337.609 553.032 338.448 551.857C341.302 543.801 341.302 537.256 336.099 533.396C335.092 532.724 334.085 532.221 332.91 531.717C332.238 531.549 331.4 531.214 330.728 531.046C330.225 530.878 329.889 530.71 329.386 530.542C328.211 530.207 327.036 529.871 325.861 529.703C324.686 529.368 323.512 529.2 322.337 529.2C321.162 529.031 319.819 528.864 318.645 528.864C317.806 528.864 316.966 529.032 316.127 529.032C314.785 529.032 313.61 529.201 312.435 529.536C311.26 529.704 310.085 529.871 308.911 530.207C307.736 530.543 306.561 530.879 305.386 531.382C304.211 531.886 303.204 532.389 302.03 532.893C301.023 533.396 300.016 534.068 298.841 534.571C259.737 560.081 283.065 619.828 309.75 637.114C299.68 638.96 289.443 641.142 286.59 643.324C286.421 643.492 286.254 643.659 286.254 643.659C293.471 648.023 301.023 651.715 308.911 654.904C319.652 658.428 331.064 661.617 336.099 662.959L336.099 663.127C350.029 665.981 364.126 666.988 378.392 666.148C452.74 660.946 513.661 604.388 524.738 529.872C525.074 531.382 525.41 532.725 525.745 534.235C526.249 537.256 526.92 540.445 527.256 543.634L527.256 543.802C527.591 545.312 527.759 546.823 527.927 548.165L527.927 548.837C528.095 550.348 528.263 551.858 528.263 553.201C528.431 555.047 528.598 556.893 528.598 558.739L528.598 561.424C528.598 562.263 528.766 563.27 528.766 564.109C528.766 565.116 528.598 566.123 528.598 567.13L528.598 569.48C528.598 570.655 528.43 571.662 528.43 572.837C528.43 573.508 528.43 574.179 528.262 575.018C528.262 576.193 528.094 577.368 528.094 578.71C527.925 579.214 527.925 579.717 527.925 580.221C527.757 581.564 527.59 582.738 527.422 584.081C527.422 584.585 527.422 585.088 527.254 585.592C527.085 587.27 526.75 588.78 526.582 590.458L526.582 590.627L526.582 590.795C526.247 592.305 525.911 593.984 525.575 595.494L525.575 595.997C525.24 597.508 524.904 599.018 524.568 600.529C524.568 600.697 524.4 601.032 524.4 601.2C524.065 602.711 523.729 604.221 523.225 605.732L523.225 606.235C522.722 607.913 522.218 609.424 521.883 610.934C521.715 611.102 521.715 611.27 521.715 611.27C521.211 612.948 520.708 614.626 520.204 616.305C519.533 617.983 519.03 619.493 518.358 621.172C517.687 622.85 517.183 624.528 516.512 626.039C515.841 627.717 515.169 629.228 514.498 630.906L514.33 630.906C513.658 632.416 512.987 634.095 512.148 635.605C511.98 636.108 511.813 636.444 511.645 636.78C511.477 636.948 511.477 637.115 511.309 637.283C500.4 659.269 484.289 678.569 464.149 693.674C462.807 694.513 461.464 695.52 460.122 696.527C459.786 696.862 459.282 697.03 458.947 697.366C457.772 698.205 456.597 699.044 455.255 699.883L455.758 700.89L455.926 700.89C458.276 700.555 460.625 700.219 462.975 699.883L463.143 699.883C467.506 699.212 471.87 698.373 476.234 697.534C477.408 697.365 478.751 697.03 479.926 696.694C480.765 696.526 481.436 696.359 482.275 696.191C483.45 696.023 484.625 695.687 485.8 695.519C486.807 695.184 487.814 695.016 488.821 694.68C505.603 690.652 521.883 685.114 537.491 678.569C510.806 714.987 475.059 744.357 433.269 763.658C452.57 762.315 471.87 759.126 490.499 753.756C558.134 733.784 615.028 688.303 649.097 627.045C642.216 665.814 626.776 702.736 603.951 734.959C620.23 724.218 635.167 711.799 648.761 697.701C686.355 658.429 711.025 608.584 719.417 555.047C725.123 581.564 726.801 608.92 724.284 635.94C845.456 466.937 734.353 291.724 687.865 245.572C687.697 245.236 687.53 245.068 687.53 244.733C687.361 244.901 687.361 244.901 687.361 245.068C687.361 244.9 687.361 244.9 687.193 244.733C687.193 246.746 687.025 248.76 686.858 250.774C686.354 254.634 685.851 258.327 685.18 262.019C684.34 265.711 683.333 269.403 682.326 273.095C681.152 276.62 679.809 280.312 678.299 283.836C676.788 287.193 675.11 290.717 673.264 294.074C671.418 297.263 669.404 300.619 667.222 303.64C665.04 306.829 662.691 309.85 660.341 312.703C657.824 315.724 655.138 318.409 652.453 321.094C650.775 322.605 649.264 323.947 647.586 325.29C646.243 326.465 645.069 327.472 643.726 328.647C640.705 330.996 637.684 333.178 634.328 335.192C631.139 337.206 627.782 339.22 624.426 340.898C620.901 342.576 617.377 344.087 613.853 345.597C610.328 346.94 606.636 348.115 602.944 349.122C599.252 350.129 595.391 350.968 591.699 351.639C587.839 352.311 583.979 352.646 580.287 352.982C577.602 353.15 574.916 353.317 572.231 353.317C568.371 353.317 564.511 352.982 560.819 352.646C556.959 352.31 553.099 351.806 549.407 350.967C545.546 350.296 541.854 349.289 538.162 348.114L537.994 348.114C541.686 347.779 545.378 347.443 549.071 346.772C552.931 346.1 556.623 345.261 560.315 344.254C564.007 343.247 567.7 342.072 571.224 340.73C574.916 339.387 578.441 337.709 581.797 336.031C585.322 334.352 588.51 332.506 591.867 330.492C595.056 328.31 598.244 326.129 601.265 323.779C604.286 321.429 607.139 318.912 609.825 316.227C612.678 313.709 615.195 310.856 617.712 308.003C620.23 304.982 622.579 301.961 624.761 298.94C625.097 298.437 625.433 297.766 625.768 297.262C627.446 294.577 629.125 291.892 630.635 289.206C632.481 285.85 634.16 282.493 635.67 278.969C637.181 275.445 638.523 271.92 639.698 268.228C640.873 264.703 641.712 261.011 642.551 257.319C643.223 253.459 643.894 249.767 644.229 246.075C644.565 242.215 644.901 238.354 644.901 234.662C644.901 231.977 644.733 229.292 644.565 226.607C644.23 222.747 643.726 219.054 643.223 215.362C642.551 211.502 641.712 207.81 640.705 204.117C639.531 200.593 638.356 196.901 637.013 193.377C635.671 189.852 633.992 186.328 632.314 182.971C630.468 179.615 628.622 176.258 626.608 173.069C624.426 169.881 622.244 166.86 619.895 163.839C617.377 160.986 614.86 158.133 612.175 155.279C610.832 153.937 609.321 152.426 607.811 151.084C600.259 145.21 592.371 139.671 584.483 134.637C583.308 133.965 582.301 133.462 581.126 132.958C575.588 129.434 570.385 127.588 565.183 125.91L565.182 125.909Z" fill="#f5596a" fill-rule="evenodd" opacity="1" stroke="none" vectornator:layerName="path"/>
</g>
</g>
</svg>
